<?xml version="1.0" encoding="utf-8"?>
<!-- Svg Vector Icons : http://www.onlinewebfonts.com/icon -->
<!DOCTYPE svg PUBLIC "-//W3C//DTD SVG 1.1//EN" "http://www.w3.org/Graphics/SVG/1.1/DTD/svg11.dtd">
<svg version="1.1" xmlns="http://www.w3.org/2000/svg" xmlns:xlink="http://www.w3.org/1999/xlink" x="0px" y="0px" viewBox="0 0 256 256" enable-background="new 0 0 256 256" xml:space="preserve">
<metadata> Svg Vector Icons : http://www.onlinewebfonts.com/icon </metadata>
<g><g><path fill="white" d="M146.3,127.9l96-96c5-5,5-13,0-18c-5-5-13-5-17.9,0l-96.1,96.1L31.9,13.5c-5-5-13-5-18,0c-5,5-5,13,0,18l96.4,96.4l-96.6,96.6c-5,5-5,13,0,18c2.5,2.5,5.7,3.7,9,3.7c3.3,0,6.5-1.2,9-3.7l96.6-96.6l95.7,95.7c2.5,2.5,5.7,3.7,9,3.7c3.3,0,6.5-1.2,9-3.7c5-5,5-13,0-18L146.3,127.9z"/></g></g>
</svg>