<?xml version="1.0" encoding="UTF-8" standalone="no"?>
<!DOCTYPE svg PUBLIC "-//W3C//DTD SVG 1.1//EN" "http://www.w3.org/Graphics/SVG/1.1/DTD/svg11.dtd">
<svg width="100%" height="100%" viewBox="0 0 146 77" version="1.1" xmlns="http://www.w3.org/2000/svg" xmlns:xlink="http://www.w3.org/1999/xlink" xml:space="preserve" xmlns:serif="http://www.serif.com/" style="fill-rule:evenodd;clip-rule:evenodd;stroke-linejoin:round;stroke-miterlimit:2;">
    <g transform="matrix(1,0,0,1,-1752.18,-2297.93)">
        <g transform="matrix(0.221925,0,0,0.221925,1353.78,1632.11)">
            <g transform="matrix(0.511809,0,0,0.54528,1442.29,1714.47)">
                <path d="M1343.91,2964.47C1343.91,2973.54 1339.67,2978.08 1331.18,2978.08L1175.81,2978.08C1167.33,2978.08 1163.09,2972.96 1163.09,2962.72C1163.09,2933.16 1164.18,2888.83 1166.38,2829.73C1168.57,2770.62 1169.67,2726.3 1169.67,2696.74C1169.67,2688.26 1168.35,2683.72 1165.72,2683.14C1162.5,2684.89 1142.9,2730.1 1106.91,2818.76C1085.84,2870.84 1064.77,2922.78 1043.7,2974.57C1040.78,2981.3 1037.12,2985.24 1032.73,2986.41C1031.27,2986.71 1025.42,2986.85 1015.18,2986.85C999.961,2986.85 990.891,2983.93 987.965,2978.08C972.165,2945.89 951.39,2899.08 925.641,2837.63C898.137,2772.67 877.509,2725.71 863.757,2696.74C863.171,2695.28 861.855,2693.67 859.807,2691.91C857.758,2694.55 856.734,2698.79 856.734,2704.64C856.734,2733.32 857.466,2776.33 858.929,2833.68C860.392,2891.03 861.123,2934.04 861.123,2962.72C861.123,2972.96 857.027,2978.08 848.834,2978.08L702.242,2978.08C696.39,2978.08 692.806,2977.12 691.489,2975.22C690.172,2973.32 689.514,2970.03 689.514,2965.35C689.514,2933.45 691.05,2885.54 694.123,2821.61C697.195,2757.68 698.731,2709.76 698.731,2677.87C698.731,2643.93 697.268,2580.29 694.342,2486.95C694.049,2462.66 692.733,2426.53 690.392,2378.54L689.953,2371.08C689.66,2365.23 695.805,2362.3 708.387,2362.3C724.48,2362.3 748.619,2361.79 780.805,2360.77C812.991,2359.74 837.13,2359.23 853.223,2359.23C856.442,2359.23 860.977,2365.37 866.829,2377.66L994.987,2659C1004.06,2678.02 1011.67,2687.53 1017.81,2687.53C1021.03,2687.53 1027.9,2676.55 1038.44,2654.61C1067.99,2593.16 1111.73,2500.55 1169.67,2376.79C1174.64,2365.37 1180.06,2359.67 1185.91,2359.67C1194.39,2359.67 1207.19,2360.11 1224.31,2360.99C1241.43,2361.86 1254.38,2362.3 1263.15,2362.3C1270.47,2362.3 1281.66,2361.57 1296.73,2360.11C1311.8,2358.64 1322.99,2357.91 1330.31,2357.91C1339.08,2357.91 1343.47,2361.42 1343.47,2368.45C1343.47,2383.07 1343.25,2367.17 1342.8,2387.91C1342.2,2416.13 1230.65,2488.76 1230.65,2679.34C1230.65,2851.78 1342.55,2921.63 1343.19,2947.65C1343.67,2966.94 1343.91,2951.01 1343.91,2964.47Z" style="fill:white;fill-rule:nonzero;"/>
                <clipPath id="_clip1">
                    <path d="M1343.91,2964.47C1343.91,2973.54 1339.67,2978.08 1331.18,2978.08L1175.81,2978.08C1167.33,2978.08 1163.09,2972.96 1163.09,2962.72C1163.09,2933.16 1164.18,2888.83 1166.38,2829.73C1168.57,2770.62 1169.67,2726.3 1169.67,2696.74C1169.67,2688.26 1168.35,2683.72 1165.72,2683.14C1162.5,2684.89 1142.9,2730.1 1106.91,2818.76C1085.84,2870.84 1064.77,2922.78 1043.7,2974.57C1040.78,2981.3 1037.12,2985.24 1032.73,2986.41C1031.27,2986.71 1025.42,2986.85 1015.18,2986.85C999.961,2986.85 990.891,2983.93 987.965,2978.08C972.165,2945.89 951.39,2899.08 925.641,2837.63C898.137,2772.67 877.509,2725.71 863.757,2696.74C863.171,2695.28 861.855,2693.67 859.807,2691.91C857.758,2694.55 856.734,2698.79 856.734,2704.64C856.734,2733.32 857.466,2776.33 858.929,2833.68C860.392,2891.03 861.123,2934.04 861.123,2962.72C861.123,2972.96 857.027,2978.08 848.834,2978.08L702.242,2978.08C696.39,2978.08 692.806,2977.12 691.489,2975.22C690.172,2973.32 689.514,2970.03 689.514,2965.35C689.514,2933.45 691.05,2885.54 694.123,2821.61C697.195,2757.68 698.731,2709.76 698.731,2677.87C698.731,2643.93 697.268,2580.29 694.342,2486.95C694.049,2462.66 692.733,2426.53 690.392,2378.54L689.953,2371.08C689.66,2365.23 695.805,2362.3 708.387,2362.3C724.48,2362.3 748.619,2361.79 780.805,2360.77C812.991,2359.74 837.13,2359.23 853.223,2359.23C856.442,2359.23 860.977,2365.37 866.829,2377.66L994.987,2659C1004.06,2678.02 1011.67,2687.53 1017.81,2687.53C1021.03,2687.53 1027.9,2676.55 1038.44,2654.61C1067.99,2593.16 1111.73,2500.55 1169.67,2376.79C1174.64,2365.37 1180.06,2359.67 1185.91,2359.67C1194.39,2359.67 1207.19,2360.11 1224.31,2360.99C1241.43,2361.86 1254.38,2362.3 1263.15,2362.3C1270.47,2362.3 1281.66,2361.57 1296.73,2360.11C1311.8,2358.64 1322.99,2357.91 1330.31,2357.91C1339.08,2357.91 1343.47,2361.42 1343.47,2368.45C1343.47,2383.07 1343.25,2367.17 1342.8,2387.91C1342.2,2416.13 1230.65,2488.76 1230.65,2679.34C1230.65,2851.78 1342.55,2921.63 1343.19,2947.65C1343.67,2966.94 1343.91,2951.01 1343.91,2964.47Z" clip-rule="nonzero"/>
                </clipPath>
                <g clip-path="url(#_clip1)">
                    <g transform="matrix(1.95385,0,0,1.85692,-2818.03,-3213.19)">
                        <rect x="1795.19" y="2999.62" width="653.794" height="339.268" style="fill:white;"/>
                    </g>
                </g>
            </g>
            <g transform="matrix(1,0,0,0.964115,1274.35,411.525)">
                <path d="M1084.24,2974.48C1084.24,2977.03 1082.67,2980.38 1079.53,2984.53C1051.99,3019.45 1015.39,3036.92 969.729,3036.92C923.026,3036.92 885.154,3019.93 856.113,2985.96C827.822,2953.11 813.676,2911.64 813.676,2861.57C813.676,2813.08 827.522,2771.94 855.215,2738.13C884.106,2702.72 920.855,2685.02 965.463,2685.02C1013.96,2685.02 1051.99,2700.89 1079.53,2732.62C1082.52,2736.13 1084.02,2739.24 1084.02,2741.95C1084.02,2744.99 1078.82,2756.23 1068.41,2775.68C1058.01,2795.14 1051.46,2806.07 1048.77,2808.46C1047.57,2809.73 1046.07,2810.37 1044.28,2810.37C1043.53,2810.37 1039.79,2807.18 1033.05,2800.8C1024.97,2793.15 1017.03,2787.17 1009.25,2782.86C997.423,2776.48 985.148,2773.29 972.424,2773.29C950.419,2773.29 932.83,2782.06 919.658,2799.61C907.532,2815.87 901.47,2835.97 901.47,2859.89C901.47,2884.13 907.532,2904.47 919.658,2920.89C932.83,2938.76 950.419,2947.69 972.424,2947.69C985.447,2947.69 997.797,2944.66 1009.47,2938.6C1017.11,2934.61 1024.89,2929.03 1032.83,2921.85C1039.41,2915.79 1043.08,2912.76 1043.83,2912.76C1045.32,2912.76 1046.82,2913.64 1048.32,2915.39C1050.71,2918.26 1057.22,2928.23 1067.85,2945.29C1078.78,2963 1084.24,2972.72 1084.24,2974.48Z" style="fill:white;fill-rule:nonzero;"/>
                <clipPath id="_clip2">
                    <path d="M1084.24,2974.48C1084.24,2977.03 1082.67,2980.38 1079.53,2984.53C1051.99,3019.45 1015.39,3036.92 969.729,3036.92C923.026,3036.92 885.154,3019.93 856.113,2985.96C827.822,2953.11 813.676,2911.64 813.676,2861.57C813.676,2813.08 827.522,2771.94 855.215,2738.13C884.106,2702.72 920.855,2685.02 965.463,2685.02C1013.96,2685.02 1051.99,2700.89 1079.53,2732.62C1082.52,2736.13 1084.02,2739.24 1084.02,2741.95C1084.02,2744.99 1078.82,2756.23 1068.41,2775.68C1058.01,2795.14 1051.46,2806.07 1048.77,2808.46C1047.57,2809.73 1046.07,2810.37 1044.28,2810.37C1043.53,2810.37 1039.79,2807.18 1033.05,2800.8C1024.97,2793.15 1017.03,2787.17 1009.25,2782.86C997.423,2776.48 985.148,2773.29 972.424,2773.29C950.419,2773.29 932.83,2782.06 919.658,2799.61C907.532,2815.87 901.47,2835.97 901.47,2859.89C901.47,2884.13 907.532,2904.47 919.658,2920.89C932.83,2938.76 950.419,2947.69 972.424,2947.69C985.447,2947.69 997.797,2944.66 1009.47,2938.6C1017.11,2934.61 1024.89,2929.03 1032.83,2921.85C1039.41,2915.79 1043.08,2912.76 1043.83,2912.76C1045.32,2912.76 1046.82,2913.64 1048.32,2915.39C1050.71,2918.26 1057.22,2928.23 1067.85,2945.29C1078.78,2963 1084.24,2972.72 1084.24,2974.48Z" clip-rule="nonzero"/>
                </clipPath>
                <g clip-path="url(#_clip2)">
                    <g transform="matrix(1,0,0,1.03722,-1274.35,-426.247)">
                        <rect x="1795.19" y="2999.62" width="653.794" height="339.268" style="fill:white;"/>
                    </g>
                </g>
            </g>
            <g transform="matrix(1,0,0,1,1379.54,179.886)">
                <circle cx="1012.75" cy="2991.78" r="56.691" style="fill:white;"/>
                <clipPath id="_clip3">
                    <circle cx="1012.75" cy="2991.78" r="56.691"/>
                </clipPath>
                <g clip-path="url(#_clip3)">
                    <g transform="matrix(1,0,0,1,-1379.54,-179.311)">
                        <rect x="1795.19" y="2999.62" width="653.794" height="339.268" style="fill:white;"/>
                    </g>
                </g>
            </g>
        </g>
    </g>
</svg>
